<?xml version="1.0" encoding="UTF-8" standalone="no"?>
<!-- Created with Inkscape (http://www.inkscape.org/) -->

<svg
   xmlns:dc="http://purl.org/dc/elements/1.1/"
   xmlns:cc="http://creativecommons.org/ns#"
   xmlns:rdf="http://www.w3.org/1999/02/22-rdf-syntax-ns#"
   xmlns:svg="http://www.w3.org/2000/svg"
   xmlns="http://www.w3.org/2000/svg"
   xmlns:sodipodi="http://sodipodi.sourceforge.net/DTD/sodipodi-0.dtd"
   xmlns:inkscape="http://www.inkscape.org/namespaces/inkscape"
   width="625.0025"
   height="625"
   id="svg2"
   version="1.1"
   inkscape:version="0.92.3 (2405546, 2018-03-11)"
   sodipodi:docname="round-logo-vector-06.svg"
   inkscape:export-filename="/home/matthias/Projects/Edgeryders.Core/Visuals/edgeryders-graphics.git/logo/round-logo/round-logo-vector-06.512x512.png"
   inkscape:export-xdpi="78.639999"
   inkscape:export-ydpi="78.639999">
  <defs
     id="defs4">
    <clipPath
       id="clipPath3479"
       clipPathUnits="userSpaceOnUse">
      <path
         id="path3481"
         d="M 0,500 H 500 V 0 H 0 Z"
         inkscape:connector-curvature="0" />
    </clipPath>
  </defs>
  <sodipodi:namedview
     id="base"
     pagecolor="#ffffff"
     bordercolor="#666666"
     borderopacity="1.0"
     inkscape:pageopacity="0.0"
     inkscape:pageshadow="2"
     inkscape:zoom="0.5"
     inkscape:cx="-238.39851"
     inkscape:cy="317.92445"
     inkscape:document-units="px"
     inkscape:current-layer="g3475"
     showgrid="false"
     inkscape:window-width="1280"
     inkscape:window-height="744"
     inkscape:window-x="0"
     inkscape:window-y="0"
     inkscape:window-maximized="1"
     fit-margin-top="0"
     fit-margin-left="0"
     fit-margin-right="0"
     fit-margin-bottom="0" />
  <metadata
     id="metadata7">
    <rdf:RDF>
      <cc:Work
         rdf:about="">
        <dc:format>image/svg+xml</dc:format>
        <dc:type
           rdf:resource="http://purl.org/dc/dcmitype/StillImage" />
        <dc:title />
      </cc:Work>
    </rdf:RDF>
  </metadata>
  <g
     inkscape:label="Layer 1"
     inkscape:groupmode="layer"
     id="layer1"
     transform="translate(-62.445753,-59.10554)">
    <g
       transform="matrix(1.25,0,0,-1.25,46.947003,881.60554)"
       inkscape:label="round logo vector"
       id="g3473">
      <g
         id="g3475">
        <g
           id="g1878"
           transform="translate(121.6,73.6)">
          <g
             id="g3483"
             transform="translate(-109.201,334.403)"
             style="fill:#f15c33;fill-opacity:1">
            <path
               inkscape:connector-curvature="0"
               d="M 0,0 C 0,138.068 111.93,249.997 250,249.997 388.07,249.997 500.002,138.068 500.002,0 500.002,-138.071 388.07,-250.003 250,-250.003 111.93,-250.003 0,-138.071 0,0"
               style="fill:#708297;fill-opacity:1;fill-rule:nonzero;stroke:none"
               id="path3485" />
          </g>
          <g
             id="g3487"
             transform="translate(-12.4295,437.1589)">
            <path
               inkscape:connector-curvature="0"
               d="M 0,0 H 42.652 V -15.32 H 16.369 V -43.102 H 35.296 V -58.423 H 16.369 v -31.686 h 26.283 v -15.926 H 0 Z"
               style="fill:#ffffff;fill-opacity:1;fill-rule:nonzero;stroke:none"
               id="path3489" />
          </g>
          <g
             id="g3491"
             transform="translate(67.3469,346.7341)">
            <path
               inkscape:connector-curvature="0"
               d="m 0,0 c 6.166,0 8.562,3.913 8.562,11.124 v 51.063 c 0,8.713 -4.06,12.618 -13.071,12.618 H -8.256 V 0 Z m -24.477,90.425 h 23.289 c 18.158,0 26.428,-9.46 26.428,-29.139 V 13.98 c 0,-20.273 -7.509,-29.59 -25.682,-29.59 h -24.035 z"
               style="fill:#ffffff;fill-opacity:1;fill-rule:nonzero;stroke:none"
               id="path3493" />
          </g>
          <g
             id="g3495"
             transform="translate(105.5363,412.6755)">
            <path
               inkscape:connector-curvature="0"
               d="m 0,0 c 0,16.526 9.465,26.739 25.678,26.739 15.329,0 23.585,-9.17 23.585,-27.181 v -9.769 H 33.498 V 1.052 c 0,7.363 -2.861,10.965 -8.414,10.965 -5.563,0 -8.418,-3.602 -8.418,-10.965 V -58.12 c 0,-7.36 2.855,-11.123 8.418,-11.123 5.553,0 8.414,3.763 8.414,11.123 v 16.517 H 23.58 v 13.519 h 25.683 v -53.468 h -7.814 l -3.145,7.364 C 34.696,-80.805 29.736,-83.802 22.528,-83.802 7.962,-83.802 0,-73.586 0,-54.364 Z"
               style="fill:#ffffff;fill-opacity:1;fill-rule:nonzero;stroke:none"
               id="path3497" />
          </g>
          <g
             id="g3499"
             transform="translate(169.9982,437.1589)">
            <path
               inkscape:connector-curvature="0"
               d="M 0,0 H 42.657 V -15.32 H 16.385 V -43.102 H 35.297 V -58.423 H 16.385 v -31.686 h 26.272 v -15.926 H 0 Z"
               style="fill:#ffffff;fill-opacity:1;fill-rule:nonzero;stroke:none"
               id="path3501" />
          </g>
          <g
             id="g3503"
             transform="translate(2.5959,263.6833)">
            <path
               inkscape:connector-curvature="0"
               d="m 0,0 h 6.463 c 7.964,0 10.062,4.36 10.062,16.082 0,11.261 -2.702,14.71 -10.666,14.71 H 0 Z M 0,-59.92 H -16.36 V 46.112 H 7.666 c 17.728,0 25.531,-8.857 25.531,-30.64 C 33.197,2.86 30.499,-5.25 22.845,-10.66 L 34.853,-59.92 H 17.884 L 7.82,-15.315 H 0 Z"
               style="fill:#ffffff;fill-opacity:1;fill-rule:nonzero;stroke:none"
               id="path3505" />
          </g>
          <g
             id="g3507"
             transform="translate(55.3605,309.7956)">
            <path
               inkscape:connector-curvature="0"
               d="m 0,0 10.652,-42.35 h 1.056 L 21.778,0 H 38.445 L 19.374,-62.025 v -44.007 H 2.992 v 42.055 L -16.526,0 Z"
               style="fill:#ffffff;fill-opacity:1;fill-rule:nonzero;stroke:none"
               id="path3509" />
          </g>
          <g
             id="g3511"
             transform="translate(125.0676,219.3757)">
            <path
               inkscape:connector-curvature="0"
               d="m 0,0 c 6.165,0 8.563,3.912 8.563,11.123 v 51.061 c 0,8.712 -4.056,12.62 -13.064,12.62 H -8.255 V 0 Z m -24.478,90.42 h 23.281 c 18.178,0 26.435,-9.46 26.435,-29.14 V 13.975 c 0,-20.269 -7.508,-29.587 -25.681,-29.587 h -24.035 z"
               style="fill:#ffffff;fill-opacity:1;fill-rule:nonzero;stroke:none"
               id="path3513" />
          </g>
          <g
             id="g3515"
             transform="translate(165.2121,309.7956)">
            <path
               inkscape:connector-curvature="0"
               d="M 0,0 H 42.652 V -15.32 H 16.374 v -27.781 h 18.923 v -15.32 H 16.374 v -31.688 h 26.278 v -15.923 H 0 Z"
               style="fill:#ffffff;fill-opacity:1;fill-rule:nonzero;stroke:none"
               id="path3517" />
          </g>
          <g
             id="g3519"
             transform="translate(236.7326,263.6833)">
            <path
               inkscape:connector-curvature="0"
               d="m 0,0 h 6.463 c 7.956,0 10.063,4.36 10.063,16.082 0,11.261 -2.703,14.71 -10.666,14.71 H 0 Z M 0,-59.92 H -16.367 V 46.112 H 7.658 c 17.718,0 25.538,-8.857 25.538,-30.64 0,-12.612 -2.708,-20.722 -10.358,-26.132 l 12.01,-49.26 H 17.877 L 7.813,-15.315 H 0 Z"
               style="fill:#ffffff;fill-opacity:1;fill-rule:nonzero;stroke:none"
               id="path3521" />
          </g>
          <g
             id="g3523"
             transform="translate(293.8313,233.0544)">
            <path
               inkscape:connector-curvature="0"
               d="m 0,0 c 0.61,-10.67 3.913,-15.771 10.822,-15.771 6.01,0 10.071,4.048 10.071,10.206 0,8.862 -6.016,14.262 -14.727,22.985 -11.867,11.857 -20.274,20.579 -20.274,34.541 0,15.32 11.564,26.584 25.384,26.584 13.521,0 23.282,-9.76 24.479,-26.287 l -15.917,-2.25 c -0.609,9.161 -3.006,13.217 -9.016,13.217 -5.106,0 -8.708,-3.756 -8.708,-9.764 0,-9.611 7.058,-16.07 16.366,-25.076 C 29.747,17.42 36.808,9.453 36.808,-5.263 c 0,-15.62 -10.819,-26.432 -25.385,-26.432 -15.917,0 -26.284,10.658 -27.034,29.284 z"
               style="fill:#ffffff;fill-opacity:1;fill-rule:nonzero;stroke:none"
               id="path3525" />
          </g>
          <path
             inkscape:connector-curvature="0"
             d="m 228.4436,405.7204 c 23.112,0 41.849,18.736 41.849,41.846 0,23.112 -18.736,41.848 -41.849,41.848 -23.108,-0.003 -41.846,-18.736 -41.847,-41.848 h 41.85 z"
             style="fill:#f07e2f;fill-opacity:1;fill-rule:nonzero;stroke:none;stroke-width:1"
             id="path3529" />
        </g>
      </g>
    </g>
  </g>
</svg>
